<svg xmlns="http://www.w3.org/2000/svg" viewBox="0 0 120 100" role="img" aria-label="ヒントチケット">
  <defs>
    <linearGradient id="t" x1="8" y1="20" x2="112" y2="82">
      <stop stop-color="#FFD9E5"/>
      <stop offset=".55" stop-color="#FF8FB3"/>
      <stop offset="1" stop-color="#FF6F91"/>
    </linearGradient>
  </defs>
  <path d="M18 29 92 12a8 8 0 0 1 10 6l11 46a8 8 0 0 1-6 10L33 91a8 8 0 0 1-10-6l-3-13a13 13 0 0 0-6-25l-2-8a8 8 0 0 1 6-10z" fill="url(#t)"/>
  <path d="M58 34c9-6 23-1 23 12 0 18-23 27-23 27S35 64 35 46c0-13 15-18 23-12z" fill="#fff5f8"/>
  <path d="M51 46h14l-7 13z" fill="#FF6F91"/>
</svg>
