<svg xmlns="http://www.w3.org/2000/svg" viewBox="0 0 128 128" role="img" aria-label="MelodyLienマスコット">
  <defs>
    <linearGradient id="h" x1="24" y1="20" x2="98" y2="120">
      <stop stop-color="#B99263"/>
      <stop offset="1" stop-color="#5B3525"/>
    </linearGradient>
    <linearGradient id="k" x1="32" y1="62" x2="92" y2="126">
      <stop stop-color="#C9B8FF"/>
      <stop offset="1" stop-color="#8B67F5"/>
    </linearGradient>
  </defs>
  <circle cx="64" cy="64" r="58" fill="#FFF2EB"/>
  <path d="M32 54c-5-23 12-41 32-41s39 18 32 43c-4-14-18-24-32-24S38 41 32 54z" fill="url(#h)"/>
  <circle cx="44" cy="24" r="14" fill="url(#h)"/>
  <circle cx="84" cy="24" r="14" fill="url(#h)"/>
  <circle cx="64" cy="62" r="34" fill="#FFD7BC"/>
  <path d="M28 126c4-28 20-43 36-43s32 15 36 43z" fill="url(#k)"/>
  <circle cx="51" cy="61" r="5" fill="#2F2A45"/>
  <circle cx="77" cy="61" r="5" fill="#2F2A45"/>
  <path d="M54 78c7 7 15 7 22 0" fill="none" stroke="#8A4C45" stroke-width="5" stroke-linecap="round"/>
  <path d="M92 48c4 9 6 18 4 27" fill="none" stroke="#5B3525" stroke-width="7" stroke-linecap="round"/>
  <path d="M95 40v28a10 10 0 1 1-7-9V45h20v8H95z" fill="#9B7BFF"/>
</svg>
